<?xml version="1.0" encoding="utf-8"?>
<!-- Generator: Adobe Illustrator 21.0.2, SVG Export Plug-In . SVG Version: 6.00 Build 0)  -->
<svg version="1.1" id="Layer_1" xmlns="http://www.w3.org/2000/svg" xmlns:xlink="http://www.w3.org/1999/xlink" x="0px" y="0px"
	 viewBox="0 0 99.2 99.2" style="enable-background:new 0 0 99.2 99.2;" xml:space="preserve">
<style type="text/css">
	.st0{fill:#F1F0F0;}
	.st1{fill:#FFFEF1;}
</style>
<path class="st0" d="M31,15.1c-8.4,1.1-7.6,13.2-8.1,19.2c-1,13.2,10.9,15,18.8,15.4c7.9,0.4,17.4,2.3,17.3,12.2
	c-0.1,7.6-11.6,12.7-17.2,6.5c-2-2.2-1.6-5.5-4.2-7.6c-3.4-2.8-8.5-2.7-11.7,0.4c-6.4,6.2-0.3,16.7,5.3,21.1
	C45.6,93.5,69.5,88.1,75.4,70c2.8-8.6,0.5-18.6-5.1-25.6c-6.8-8.6-15.5-10.8-26-11.9c0.1,0-2.4-0.2-3.6-0.4c0.3-2.3,17.2-2.2,20-2.5
	c6.5-0.8,14-4.2,10.8-12.4c-2.9-7.5-11.3-4.9-17.4-4.5C46.4,13.2,38.6,13.8,31,15.1"/>
</svg>
