<?xml version="1.0" encoding="utf-8"?>
<!-- Generator: Adobe Illustrator 21.0.2, SVG Export Plug-In . SVG Version: 6.00 Build 0)  -->
<svg version="1.1" id="Layer_1" xmlns="http://www.w3.org/2000/svg" xmlns:xlink="http://www.w3.org/1999/xlink" x="0px" y="0px"
	 viewBox="0 0 99.2 99.2" style="enable-background:new 0 0 99.2 99.2;" xml:space="preserve">
<style type="text/css">
	.st0{fill:#F1F0F0;}
	.st1{fill:#FFFEF1;}
</style>
<path class="st1" d="M32.9,2.3C18.1,2.2,4,22.1,12.5,35.7c4,6.4,11.9,10.7,19,12.5c8,2,13.8-0.5,19.4-6.1c-0.4,0.4-0.8,0.8-1.2,1.2
	c7.5-7.5,10.8-18.8,5.3-28.4C51.2,8,41.2,1.2,32.9,2.3 M32.8,19.6c4.6,1.1,12.2,6.6,5,11.1c-2.2,1.4-9.2-1-10.1-3.7
	C26.9,24.7,30.6,19.7,32.8,19.6"/>
</svg>
