<?xml version="1.0" encoding="utf-8"?>
<!-- Generator: Adobe Illustrator 21.0.2, SVG Export Plug-In . SVG Version: 6.00 Build 0)  -->
<svg version="1.1" id="Layer_1" xmlns="http://www.w3.org/2000/svg" xmlns:xlink="http://www.w3.org/1999/xlink" x="0px" y="0px"
	 viewBox="0 0 99.2 99.2" style="enable-background:new 0 0 99.2 99.2;" xml:space="preserve">
<style type="text/css">
	.st0{fill:#F1F0F0;}
	.st1{fill:#FFFEF1;}
</style>
<g>
	<path class="st0" d="M27.6,32.2c-8.1,7-7.7,16.3-7.2,26.3c0.3,7.4,0.5,21.1,6.3,26.7c7.8,7.4,15.8-1.8,14.1-9.9
		c-1.1-5.2-2.4-9.9-2.9-15.2c-0.2-2-1.6-12.2,0.3-13.9c2,1.4,1.8,6.4,1.9,8.5c0.3,4.3,0.7,8,5.1,10.1c10.1,4.7,12-7.5,15.8-13.3
		c-0.4,6.8-2.5,12.8-5.3,19c-2.2,4.8-5.9,10-2.3,15.1c8.9,12.7,17.5-5.9,20.2-12.5c4.1-10,7.2-24.1,3.7-34.8
		c-4.2-12.8-17.7-11-25.7-3.1C46.1,28.3,34.8,26,27.6,32.2"/>
</g>
</svg>
