<?xml version="1.0" encoding="utf-8"?>
<!-- Generator: Adobe Illustrator 21.0.2, SVG Export Plug-In . SVG Version: 6.00 Build 0)  -->
<svg version="1.1" id="Layer_1" xmlns="http://www.w3.org/2000/svg" xmlns:xlink="http://www.w3.org/1999/xlink" x="0px" y="0px"
	 viewBox="0 0 99.2 99.2" style="enable-background:new 0 0 99.2 99.2;" xml:space="preserve">
<style type="text/css">
	.st0{fill:#F1F0F0;}
	.st1{fill:#FFFEF1;}
</style>
<g>
	<path class="st0" d="M31.2,30.2c-7.5,3-9,17.2-10.1,24c-1.5,9.7-0.5,20.1,6.7,27.5c3.2,3.2,7.5,4.9,12.1,4.5
		c1.5-0.1,3.8-1.6,5.1-1.4c1.4,0.2,3.1,2.3,4.4,2.9c8.2,3.5,17.9-0.9,22.8-7.8c4.9-7,7-16.5,6.4-24.9c-0.4-6.4-0.8-18.3-6.5-22.2
		c-3.4-2.3-8.1-2-11.1,0.9c-3.3,3.2-2.5,6.8-1.7,10.8c1.8,8.3,3,16.7-0.9,24.5c1-6.5,1.7-16.7-8.1-16.2c-9.3,0.5-6.6,10.1-11,15.2
		c-3.4-7.1-0.1-16.5,2.3-23.5c1.4-4.2,2.6-8.5-0.8-12C38.3,29.8,34.4,28.9,31.2,30.2"/>
</g>
</svg>
