<?xml version="1.0" encoding="utf-8"?>
<!-- Generator: Adobe Illustrator 21.0.2, SVG Export Plug-In . SVG Version: 6.00 Build 0)  -->
<svg version="1.1" id="Layer_1" xmlns="http://www.w3.org/2000/svg" xmlns:xlink="http://www.w3.org/1999/xlink" x="0px" y="0px"
	 viewBox="0 0 99.2 99.2" style="enable-background:new 0 0 99.2 99.2;" xml:space="preserve">
<style type="text/css">
	.st0{fill:#F1F0F0;}
	.st1{fill:#FFFEF1;}
</style>
<g>
	<path class="st0" d="M77.1,58.8c0-10.8-2-23.2-11.5-29.8c-7.7-5.3-19.1-7.5-27.1-1.6c0-0.1,0-0.1,0.2-0.2c-0.1,0-0.1,0.1-0.2,0.1
		c-1.7-4.7-7-7.1-11.6-5.2c-4.6,1.9-5.3,5.9-5.2,10.4c0.3,11.8,1.6,23.2,2.6,34.9C24.8,75,23,90.8,34.5,90
		c12.5-0.8,7.5-21.2,6.6-28.8c-0.7-6.7,2.5-23.2,12.4-19c8.1,3.5,6.2,17.6,6,24.9c-0.2,7.1-2.8,23.1,9.9,20.6
		C80.3,85.5,77.1,66.7,77.1,58.8z"/>
</g>
</svg>
