<?xml version="1.0" encoding="utf-8"?>
<!-- Generator: Adobe Illustrator 21.0.2, SVG Export Plug-In . SVG Version: 6.00 Build 0)  -->
<svg version="1.1" id="Layer_1" xmlns="http://www.w3.org/2000/svg" xmlns:xlink="http://www.w3.org/1999/xlink" x="0px" y="0px"
	 viewBox="0 0 99.2 99.2" style="enable-background:new 0 0 99.2 99.2;" xml:space="preserve">
<style type="text/css">
	.st0{fill:#F1F0F0;}
	.st1{fill:#FFFEF1;}
</style>
<g>
	<path class="st0" d="M41.3,19.5c-4.1,0.1-8.7-0.4-12,2.5c-3.3,3-3.8,8.2-1.1,11.7c5,6.7,18.8,2.6,25.8,2.8
		c0.9,6.1,1.2,12.3,1.1,18.5c-0.1,5,0.8,13.7-3.4,17.2c-1.2,0-2.3-0.3-3.4-0.8c-3.7-4.8,0.2-11.4-6.2-14.9
		c-7.7-4.2-13.4,3.3-12.9,10.4C30.1,81.2,43.5,95,58.6,88.3C75.3,81,73.1,57.1,72.1,42.4c-0.5-6.6-0.1-17-6.3-21.2
		C59.4,16.9,48.5,19.2,41.3,19.5"/>
</g>
</svg>
