<?xml version="1.0" encoding="utf-8"?>
<!-- Generator: Adobe Illustrator 21.0.2, SVG Export Plug-In . SVG Version: 6.00 Build 0)  -->
<svg version="1.1" id="Layer_1" xmlns="http://www.w3.org/2000/svg" xmlns:xlink="http://www.w3.org/1999/xlink" x="0px" y="0px"
	 viewBox="0 0 99.2 99.2" style="enable-background:new 0 0 99.2 99.2;" xml:space="preserve">
<style type="text/css">
	.st0{fill:#F1F0F0;}
	.st1{fill:#FFFEF1;}
</style>
<g>
	<g>
		<path class="st0" d="M68.5,25.6c-9.9-1.4-15.1-0.9-27.3-1.6c-12.2-0.7-18,4.1-17.6,16.7c0.4,11.5,1.7,33,1.7,34.5
			s-1.2,12.7,6.8,14.4c8.4,1.8,10.5-8.9,10.7-10.2c0.2-1.3,0-7.6,0-9.4c6.7-0.3,17,3.1,20.8-4.2c5.4-10.4-4-13.1-14.6-13.3
			c-6.1-0.1-4.9-0.1-7,0c-0.2-3.7-0.5-7.4-0.8-11.1c4.9,0.2,9.9,0,14.8,0.2c4.7,0.3,10.6,2.6,15.1,0.3C78,38.3,76.8,26.7,68.5,25.6z
			"/>
	</g>
</g>
</svg>
