<?xml version="1.0" encoding="utf-8"?>
<!-- Generator: Adobe Illustrator 21.0.2, SVG Export Plug-In . SVG Version: 6.00 Build 0)  -->
<svg version="1.1" id="Layer_1" xmlns="http://www.w3.org/2000/svg" xmlns:xlink="http://www.w3.org/1999/xlink" x="0px" y="0px"
	 viewBox="0 0 99.2 99.2" style="enable-background:new 0 0 99.2 99.2;" xml:space="preserve">
<style type="text/css">
	.st0{fill:#F1F0F0;}
	.st1{fill:#FFFEF1;}
</style>
<path class="st0" d="M44.8,8.9C25.8,12.2,14.4,37.4,34.4,48C27,54.9,23.1,63.6,27,73.5c3.5,8.8,13.5,14.1,22.5,14.6
	C74.1,89.7,83.4,61.4,66.9,45c8-7.3,10.6-16.9,4.5-26.7C65.8,9.1,54.9,7.2,44.8,8.9 M49.3,25.8c2.4-0.2,6.6-0.6,7.7,2.4
	c0.9,2.5-3,6.1-5.4,6.9c-1.6,0.6-9.6-0.9-10.3-3.4C40.3,28.4,47.1,26.3,49.3,25.8 M52.3,55.9c8,4.2,7.8,16.6-3,14.6
	C36.6,68.1,46.9,59.7,52.3,55.9"/>
</svg>
