<?xml version="1.0" encoding="utf-8"?>
<!-- Generator: Adobe Illustrator 21.0.2, SVG Export Plug-In . SVG Version: 6.00 Build 0)  -->
<svg version="1.1" id="Layer_1" xmlns="http://www.w3.org/2000/svg" xmlns:xlink="http://www.w3.org/1999/xlink" x="0px" y="0px"
	 viewBox="0 0 99.2 99.2" style="enable-background:new 0 0 99.2 99.2;" xml:space="preserve">
<style type="text/css">
	.st0{fill:#F1F0F0;}
	.st1{fill:#FFFEF1;}
</style>
<g>
	<path class="st0" d="M51.8,12.8C28.5,13.4,19.8,41.3,20,60.5c0.2,21.9,19.9,35.9,40.5,26.3c6.5-3,16.9-10.3,9.8-18.3
		c-8.6-9.8-17.9,8.5-28.3,2.9c-8.3-4.5-4.6-21.7-2.1-28.7C43.6,32.7,53,26.2,62.3,34c3.4,2.9,6.2,6,11.2,4.2
		c4.4-1.7,6.7-6.9,5.1-11.3C75.1,17.2,60.9,12.6,51.8,12.8 M57.8,68.1C57.8,68.1,57.8,68.1,57.8,68.1C57.8,68.1,57.8,68.1,57.8,68.1
		C57.8,68.1,57.8,68.1,57.8,68.1"/>
</g>
</svg>
