<?xml version="1.0" encoding="utf-8"?>
<!-- Generator: Adobe Illustrator 21.0.2, SVG Export Plug-In . SVG Version: 6.00 Build 0)  -->
<svg version="1.1" id="Layer_1" xmlns="http://www.w3.org/2000/svg" xmlns:xlink="http://www.w3.org/1999/xlink" x="0px" y="0px"
	 viewBox="0 0 99.2 99.2" style="enable-background:new 0 0 99.2 99.2;" xml:space="preserve">
<style type="text/css">
	.st0{fill:#F1F0F0;}
	.st1{fill:#FFFEF1;}
</style>
<g>
	<path class="st0" d="M31.7,10.1c-8.2,4.4-7.2,17.4-8.2,25.4c-1.4,10.9-1.8,22-2.3,33c-0.4,7.7,7.2,15.5,14.5,8.7
		c3.5-3.3,3.2-8.9,3.5-13.4c0.4-6.4,0.4-12.8,1-19.2c3,8,5.1,16.3,7.4,24.5c1.5,5.5,3.2,14.5,8,18.2C71.2,99.6,73.3,65.6,74,58.5
		c0.9-8.6,1.4-17.2,2.5-25.8c0.7-6.1,3.9-16-1.6-20.8c-5.4-4.7-13.1-1.1-14.4,5.5c-1.6,8.2-1.8,17.2-2.4,25.5
		C55.1,34.3,46.1,2.5,31.7,10.1"/>
</g>
</svg>
