<?xml version="1.0" encoding="utf-8"?>
<!-- Generator: Adobe Illustrator 21.0.2, SVG Export Plug-In . SVG Version: 6.00 Build 0)  -->
<svg version="1.1" id="Layer_1" xmlns="http://www.w3.org/2000/svg" xmlns:xlink="http://www.w3.org/1999/xlink" x="0px" y="0px"
	 viewBox="0 0 99.2 99.2" style="enable-background:new 0 0 99.2 99.2;" xml:space="preserve">
<style type="text/css">
	.st0{fill:#F1F0F0;}
	.st1{fill:#FFFEF1;}
</style>
<g>
	<g>
		<path class="st0" d="M76,17.4c-2.1-3.5-6.5-5.1-10.4-3.7c-4.8,1.7-5.3,5.8-6.4,10.1c-2.3,9.2-9.3,16.7-18.3,20
			C41,36,44.3,7.7,28.6,13.4c-7,2.6-5.4,9.8-5.2,15.6c0.2,7.1,0.1,14.2,0,21.4c-0.1,7-0.5,13.9-1,20.9c-0.4,5.7-2.5,13.3,3.5,16.9
			c15.1,9.1,14.3-19.1,14.8-26.5c3.8-0.4,7-1.8,10.3-3.5c2.3,6.6,2.5,13.3,2.8,20.3c0.2,6.2,4.2,12.5,11.4,10.2
			c7.8-2.5,6.2-12.1,5.7-18.4c-0.6-8-2.3-15.4-5.2-22.9C71.1,40.9,81.4,26.4,76,17.4z"/>
		<path class="st0" d="M70.3,65.1c0,0.1,0,0.2,0,0.3c0,0.3,0.1,0.5,0.1,0.8C70.4,65.8,70.4,65.5,70.3,65.1z"/>
	</g>
</g>
</svg>
