<?xml version="1.0" encoding="utf-8"?>
<!-- Generator: Adobe Illustrator 21.0.2, SVG Export Plug-In . SVG Version: 6.00 Build 0)  -->
<svg version="1.1" id="Layer_1" xmlns="http://www.w3.org/2000/svg" xmlns:xlink="http://www.w3.org/1999/xlink" x="0px" y="0px"
	 viewBox="0 0 99.2 99.2" style="enable-background:new 0 0 99.2 99.2;" xml:space="preserve">
<style type="text/css">
	.st0{fill:#F1F0F0;}
	.st1{fill:#FFFEF1;}
</style>
<g>
	<path class="st0" d="M67.3,16.5c-6.3,4.6-4,18.4-4.6,25.3c-0.8,9.1-1.4,19.7-4.4,28.4c-2.6-6.3,2.1-15.2-5.9-18.8
		c-9.7-4.3-12.2,7.3-16.2,12.8c-1.1-6.7-1-13.5-0.6-20.2c0.3-6.5,1.6-14.5-0.1-20.9c-1.3-4.5-5.6-7.7-10.4-6.6
		c-6.1,1.3-6.9,6.8-6.7,12.1c0.7,14.2-2,28.4,1.3,42.5c2.9,12.3,14,21.3,24.8,10.4c8.3,12.5,25.1,8.2,29.9-4.6
		c5.9-15.6,6.6-43.5,6.7-50.8S75.1,10.8,67.3,16.5"/>
</g>
</svg>
