<?xml version="1.0" encoding="utf-8"?>
<!-- Generator: Adobe Illustrator 21.0.2, SVG Export Plug-In . SVG Version: 6.00 Build 0)  -->
<svg version="1.1" id="Layer_1" xmlns="http://www.w3.org/2000/svg" xmlns:xlink="http://www.w3.org/1999/xlink" x="0px" y="0px"
	 viewBox="0 0 99.2 99.2" style="enable-background:new 0 0 99.2 99.2;" xml:space="preserve">
<style type="text/css">
	.st0{fill:#F1F0F0;}
	.st1{fill:#FFFEF1;}
	.st2{fill:url(#SVGID_1_);}
	.st3{fill:url(#SVGID_2_);}
	.st4{fill:url(#SVGID_3_);}
	.st5{fill:url(#SVGID_4_);}
	.st6{fill:url(#SVGID_5_);}
	.st7{fill:url(#SVGID_6_);}
	.st8{fill:url(#SVGID_7_);}
	.st9{fill:url(#SVGID_8_);}
	.st10{fill:url(#SVGID_9_);}
	.st11{fill:url(#SVGID_10_);}
	.st12{fill:url(#SVGID_11_);}
</style>
<path class="st1" d="M49.5,58.7c1.6-0.6,3.4-2.1,4-3.8c1.8-5.9,1.6-4.5,3.2-10.4c1.2-4.3,2.1-6.2,2.6-10.7c0.3-1.9,0.5-3.9,0.7-5.8
	c0-0.6,0.1-1.1,0.1-1.7c0.2-2.1,0.3-4.5-0.4-6.4c-0.1-0.2-0.2-0.4-0.2-0.7c-0.5-1.2-1.2-2.2-2.2-3c-0.7-0.7-1.6-1.1-2.4-1.6
	c-1.7-0.9-4-0.9-5.9-0.7c-1.9,0.2-3.4,0.9-5,1.8c-1.6,1-2.8,2.7-3.6,4.3c-0.7,1.5-1,3.2-1.2,4.9C39,26.3,39,27.5,39,28.7
	c0,2.1,0.1,4.2,0.3,6.3c0.3,3.9,0.7,5.4,1,9.3c0.1,0.8,0.3,1.6,0.6,2.4c-0.5,1.6-0.3,0.7-0.8,2.2c-0.2,0.6-0.4,1.2-0.5,1.8
	c-0.2,1.3-0.1,2.6,0.4,3.8c0.7,1.7,2.1,3.2,3.8,4c1.4,0.6,2.9,0.8,4.4,0.5C48.7,59,49.1,58.9,49.5,58.7"/>
</svg>
