<?xml version="1.0" encoding="utf-8"?>
<!-- Generator: Adobe Illustrator 21.0.2, SVG Export Plug-In . SVG Version: 6.00 Build 0)  -->
<svg version="1.1" id="Layer_1" xmlns="http://www.w3.org/2000/svg" xmlns:xlink="http://www.w3.org/1999/xlink" x="0px" y="0px"
	 viewBox="0 0 99.2 99.2" style="enable-background:new 0 0 99.2 99.2;" xml:space="preserve">
<style type="text/css">
	.st0{fill:#F1F0F0;}
	.st1{fill:#FFFEF1;}
</style>
<path class="st0" d="M27.1,14.8c-5.2,5.4-1.5,13.5,5.3,14.7c7.4,1.3,15.7-1.1,23.2-1.5c-2.2,9.6-7.7,15.3-13.3,23
	c-5,7-7.2,15.4-7.1,24c0.1,7,3.6,16.1,12.5,12.5c8.5-3.5,3.7-15.7,6.8-22.6c3.4-7.7,10.5-13.4,14.3-21.1c3.2-6.6,7.7-18.5,5.1-25.9
	c-3-8.9-14.2-7.7-21.6-7.1c-4.4,0.3-8.8,1-13.2,1.4C34.7,12.4,30.5,11.3,27.1,14.8"/>
</svg>
