<?xml version="1.0" encoding="utf-8"?>
<!-- Generator: Adobe Illustrator 21.0.2, SVG Export Plug-In . SVG Version: 6.00 Build 0)  -->
<svg version="1.1" id="Layer_1" xmlns="http://www.w3.org/2000/svg" xmlns:xlink="http://www.w3.org/1999/xlink" x="0px" y="0px"
	 viewBox="0 0 99.2 99.2" style="enable-background:new 0 0 99.2 99.2;" xml:space="preserve">
<style type="text/css">
	.st0{fill:#F1F0F0;}
	.st1{fill:#FFFEF1;}
</style>
<g>
	<path class="st0" d="M56.8,16.3c-14.9-0.4-37.9-0.5-35,20.4c2.6,18.9,26,21.7,36.1,35.2c-6.4-0.3-17.4-0.8-16.6-0.8
		c-5,0-11.7-1.2-15.4,3c-3.8,4.4-2.2,11.2,3,13.6c5,2.4,12.6,0.5,18,0.9c7.3,0.4,15.4,1.9,22.6,0.3c14.3-3.3,6.7-22.7,0.3-30
		c-4.9-5.5-11.1-9.3-17.2-13.3c-3.4-2.2-12.8-6.4-13.5-10.9c5.8-0.8,11.5-1.2,17.3-1c4.4,0.2,9.1,2.3,13.1-0.5
		c4.5-3.1,5-9.7,1.1-13.4C67.1,16.3,61.4,16.4,56.8,16.3"/>
</g>
</svg>
