<?xml version="1.0" encoding="utf-8"?>
<!-- Generator: Adobe Illustrator 21.0.2, SVG Export Plug-In . SVG Version: 6.00 Build 0)  -->
<svg version="1.1" id="Layer_1" xmlns="http://www.w3.org/2000/svg" xmlns:xlink="http://www.w3.org/1999/xlink" x="0px" y="0px"
	 viewBox="0 0 99.2 99.2" style="enable-background:new 0 0 99.2 99.2;" xml:space="preserve">
<style type="text/css">
	.st0{fill:#F1F0F0;}
	.st1{fill:#FFFEF1;}
</style>
<g>
	<path class="st0" d="M33.9,13.5c-7.1,0.6-8.7,7.5-8.7,13.4c0,0,0,7.7,0,10.4c0-0.8-0.6,27.3-0.7,33.3c-0.1,6-1.4,19.5,9.2,19.4
		c10-0.1,8.3-10.1,8.2-16.9c0,0-0.2-9.8-0.2-13.4c8.2,0.6,17.3,1.5,24.1-4.1c6.2-5.1,9.2-12.8,8.9-20.7
		C73.9,15.6,49.1,12.3,33.9,13.5 M42.6,31.4c4.8,0.2,17.5,0,14.3,7.9c-2.2,5.6-9.8,3.3-14.4,3C42.6,40.2,42.6,33,42.6,31.4"/>
</g>
</svg>
