<?xml version="1.0" encoding="utf-8"?>
<!-- Generator: Adobe Illustrator 21.0.2, SVG Export Plug-In . SVG Version: 6.00 Build 0)  -->
<svg version="1.1" id="Layer_1" xmlns="http://www.w3.org/2000/svg" xmlns:xlink="http://www.w3.org/1999/xlink" x="0px" y="0px"
	 viewBox="0 0 99.2 99.2" style="enable-background:new 0 0 99.2 99.2;" xml:space="preserve">
<style type="text/css">
	.st0{fill:#F1F0F0;}
	.st1{fill:#FFFEF1;}
</style>
<g>
	<path class="st0" d="M37.6,27.1c-3.1,2.2-5.6,4.8-7.9,7.8c0.2-0.3,0.4-0.5,0.6-0.8c-11.1,14.6-10.9,37.6,4.1,49.3
		C41.7,89,69.2,96,71.4,79.8c1.3-9.4-7.5-9.9-13.7-8.6c-5.4,1.1-14.4,0.3-16.4-6.1c7.4,1.1,17.1,2,24.6,1
		c8.4-1.2,11.4-11.4,10.7-18.8C74.8,30.5,52.8,16.5,37.6,27.1 M49.8,41.4c4.5,0,7.9,2.7,9.1,7c-5.5-0.1-11,0.1-16.4-0.6
		c0.8,0.1,1.6,0.2,2.3,0.3c-0.9-0.1-1.7-0.2-2.6-0.4C44,44.5,46,41.4,49.8,41.4"/>
</g>
</svg>
