<?xml version="1.0" encoding="utf-8"?>
<!-- Generator: Adobe Illustrator 21.0.2, SVG Export Plug-In . SVG Version: 6.00 Build 0)  -->
<svg version="1.1" id="Layer_1" xmlns="http://www.w3.org/2000/svg" xmlns:xlink="http://www.w3.org/1999/xlink" x="0px" y="0px"
	 viewBox="0 0 99.2 99.2" style="enable-background:new 0 0 99.2 99.2;" xml:space="preserve">
<style type="text/css">
	.st0{fill:#F1F0F0;}
	.st1{fill:#FFFEF1;}
</style>
<g>
	<path class="st0" d="M47.4,58.2c7.4-0.1,33.9,4.2,28.3-11.4c-2.3-6.4-9.2-5.9-14.9-5.9c-7.1,0-14.4,0.4-21.4-0.2
		c0.3-4.1,0.3-8.4,1.6-12.4c9.3-1.5,18.8,0.3,28.1-0.8c7.3-0.8,12.8-9.2,6.4-15.2c-5.3-4.9-18.8-2.2-25.2-2
		c-7.6,0.3-18.6-0.7-23.4,6.5c-4.5,6.7-4.4,16.2-5,23.9c-0.8,10.8-1,21.6-1,32.5c0,10.5,4.1,15.1,14.5,16.1
		c10.8,1.1,31.1-0.1,32.3-0.2c10.4-1.6,9.3-16.6-0.9-17.3c-4.6-0.3-9.7,0.7-14.3,0.6c-4.7-0.1-9.4-0.1-14.1-0.3c0-4.7-0.1-9.3,0-14
		C41.4,58.3,44.4,58.3,47.4,58.2z"/>
</g>
</svg>
