<?xml version="1.0" encoding="utf-8"?>
<!-- Generator: Adobe Illustrator 21.0.2, SVG Export Plug-In . SVG Version: 6.00 Build 0)  -->
<svg version="1.1" id="Layer_1" xmlns="http://www.w3.org/2000/svg" xmlns:xlink="http://www.w3.org/1999/xlink" x="0px" y="0px"
	 viewBox="0 0 99.2 99.2" style="enable-background:new 0 0 99.2 99.2;" xml:space="preserve">
<style type="text/css">
	.st0{fill:#F1F0F0;}
	.st1{fill:#FFFEF1;}
</style>
<g>
	<path class="st0" d="M76.2,82c0.1-9.8,1.4-19.6,1.3-29.4c-0.1-9.6,1-19.5,0.1-29.1c-0.7-7.7-9.3-13.6-15.5-6.4
		c-2.6,3.1-1.9,7-1.9,10.8c0,5.2-0.6,10.4-0.5,15.6c-6.6-0.1-13.1,0.1-19.6,0.6c-0.2-7.7,5.2-31.3-9.7-29c-6.6,1-7,6.7-7.2,12
		C23.1,34.7,23,42.4,22.7,50c-0.3,6.8-0.6,13.5-0.9,20.3c-0.3,5.5-2.2,11.8,3.3,15.4c14.8,9.7,14.3-17,14.6-24.1
		c6.7-0.5,13.3-0.6,20-0.7c-0.6,6.8-3.5,20,1,25.8C65.2,92.5,76.1,89.8,76.2,82z"/>
</g>
</svg>
