<?xml version="1.0" encoding="utf-8"?>
<!-- Generator: Adobe Illustrator 21.0.2, SVG Export Plug-In . SVG Version: 6.00 Build 0)  -->
<svg version="1.1" id="Layer_1" xmlns="http://www.w3.org/2000/svg" xmlns:xlink="http://www.w3.org/1999/xlink" x="0px" y="0px"
	 viewBox="0 0 99.2 99.2" style="enable-background:new 0 0 99.2 99.2;" xml:space="preserve">
<style type="text/css">
	.st0{fill:#F1F0F0;}
	.st1{fill:#FFFEF1;}
</style>
<g>
	<path class="st0" d="M60.8,27.7c4.4,0.1,9.1,1.8,13-1.1c3.3-2.5,4.5-7,2.7-10.8c-4.2-8.6-21.4-5.8-29-5.1
		c-7.4,0.6-18.9,1.4-24.1,7.5c-7.9,9.2,4.3,19.4,10.3,25.4c-4.7,1.2-10,2.9-11.2,8.2c-1,4.7,2.1,9.3,6.7,10.4
		c5.3,1.2,10.2-3.5,15.6-3c3.3,0.3,3.1,0.7,5,4.1c1.4,2.5,2.4,5.2,3.4,7.9c-7.8-0.4-26.6-3.3-29.6,7.1c-1.1,4,0.8,8.2,4.4,10.2
		c4.5,2.4,11,0,15.8-0.1c7.5-0.2,23.2,4.7,27.9-3.8c4.1-7.4-2.4-20.5-5.4-27.2c5.4,0.3,11-0.9,11.9-7.2c0.6-4-1.9-8.1-5.7-9.6
		c-5.4-2.1-11.2,0.9-16.4-0.1c-4.4-0.9-9.4-8.3-12.8-11.7C49.2,28,55,27.7,60.8,27.7z"/>
</g>
</svg>
