<?xml version="1.0" encoding="utf-8"?>
<!-- Generator: Adobe Illustrator 21.0.2, SVG Export Plug-In . SVG Version: 6.00 Build 0)  -->
<svg version="1.1" id="Layer_1" xmlns="http://www.w3.org/2000/svg" xmlns:xlink="http://www.w3.org/1999/xlink" x="0px" y="0px"
	 viewBox="0 0 99.2 99.2" style="enable-background:new 0 0 99.2 99.2;" xml:space="preserve">
<style type="text/css">
	.st0{fill:#F1F0F0;}
	.st1{fill:#FFFEF1;}
</style>
<g>
	<path class="st0" d="M73.7,32.8c-3.6-11.3-14.5-20.5-26.9-18.4c-12.6,2.2-20.6,15-23,26.6C22.4,48,22,55.4,22,62.6
		c0,6.3-0.9,14.7,1.4,20.7c2.1,5.4,8.5,7.7,13.3,4.2c6-4.3,2.8-13.9,2.6-16.6c-0.3-4.5-0.6-5.5,0.1-6.4c0.8-1,7.6-0.5,9-0.5
		c3.9,0,7.8,0.3,11.7,0c-0.2,6.1-2.5,18.1,2.2,23.1c2.5,2.6,6.3,3.5,9.7,2.1c5.1-2.1,5.4-6.8,5.4-11.5c0,0.5,0,1,0,1.5
		C77.3,63.8,78.4,47.7,73.7,32.8z M55.3,46.7c-4.9-0.1-9.8-0.2-14.7,0.1c0.6-4.9,2.9-14,9-15.1c7.3-1.3,8.4,10.2,9,14.8
		C57.6,46.6,56.4,46.7,55.3,46.7z"/>
</g>
</svg>
