<?xml version="1.0" encoding="utf-8"?>
<!-- Generator: Adobe Illustrator 21.0.2, SVG Export Plug-In . SVG Version: 6.00 Build 0)  -->
<svg version="1.1" id="Layer_1" xmlns="http://www.w3.org/2000/svg" xmlns:xlink="http://www.w3.org/1999/xlink" x="0px" y="0px"
	 viewBox="0 0 99.2 99.2" style="enable-background:new 0 0 99.2 99.2;" xml:space="preserve">
<style type="text/css">
	.st0{fill:#F1F0F0;}
	.st1{fill:#FFFEF1;}
</style>
<g>
	<path class="st0" d="M26.3,20.6c-2.4,11.1-2.1,22.5-2.3,33.8c-0.1,7.9-0.7,16.7,3.7,23.8c9.4,15.4,34.3,13.5,42.1-2.1
		c4.6-9.2,4-19.7,4.3-29.7c0.2-7.7,3.2-18.1-0.9-25.3c-4.8-8.3-15-4.5-15.9,4.1c-1,10.1,0.7,20.4-0.2,30.6c-0.3,4-0.4,10.9-4,13.6
		c-3.2,2.4-8.7,1.3-11-1.8c-3-4.1-1-10.8-0.8-15.4c0.3-6.1,0.6-9.8,0.3-16.3s5.3-16.6-2.3-21.2C34.3,11.7,27.5,15,26.3,20.6"/>
</g>
</svg>
