<?xml version="1.0" encoding="utf-8"?>
<!-- Generator: Adobe Illustrator 21.0.2, SVG Export Plug-In . SVG Version: 6.00 Build 0)  -->
<svg version="1.1" id="Layer_1" xmlns="http://www.w3.org/2000/svg" xmlns:xlink="http://www.w3.org/1999/xlink" x="0px" y="0px"
	 viewBox="0 0 99.2 99.2" style="enable-background:new 0 0 99.2 99.2;" xml:space="preserve">
<style type="text/css">
	.st0{fill:#F1F0F0;}
	.st1{fill:#FFFEF1;}
</style>
<g>
	<path class="st0" d="M80.5,39.8c-4.5-12-22.5-9-29.3-1.6c-5.9-6.6-16.6-8.3-23.3-1.9c-7.6,7.2,1.5,20.9,10.5,14
		c4.2,5.5,3,15-1.9,19.7c-3.5,3.3-2.4,1.5-6.5-0.1c-3.5-1.4-7.7-0.3-10.1,2.8c-5.7,7.4,1.9,14.1,8.7,16.2c7.2,2.2,14.3,0,19.4-5.6
		c5.9,6.6,16.6,8.3,23.3,1.9c7.6-7.2-1.5-20.9-10.5-14c-2.5-3.2-3.1-8-2.2-11.8c0.6-2.6,3.4-9.6,6.4-10.1c1.4-0.2,2.9,1.8,4.2,2.3
		c2.2,0.8,4.7,0.8,6.8-0.2C80.6,49.3,82.2,44.3,80.5,39.8z"/>
</g>
</svg>
