<?xml version="1.0" encoding="utf-8"?>
<!-- Generator: Adobe Illustrator 21.0.2, SVG Export Plug-In . SVG Version: 6.00 Build 0)  -->
<svg version="1.1" id="Layer_1" xmlns="http://www.w3.org/2000/svg" xmlns:xlink="http://www.w3.org/1999/xlink" x="0px" y="0px"
	 viewBox="0 0 99.2 99.2" style="enable-background:new 0 0 99.2 99.2;" xml:space="preserve">
<style type="text/css">
	.st0{fill:#F1F0F0;}
	.st1{fill:#FFFEF1;}
</style>
<g>
	<path class="st0" d="M38.5,28.4c-12.3,8.5-18.6,27.1-14.1,41.4C29,84.6,46,90.8,58.2,80.1c1.3,5.5,4.5,11,11.2,9.5
		c5-1.1,7.9-6.2,6.4-11l0-0.1c-2.5-7.1-2.6-14-3.6-21.4c-0.8-6.3-0.3-14.2-3-20.1C64.5,26.6,48.1,21.8,38.5,28.4 M48.1,43
		c6.1,0.2,6,2.4,4.9,7.7c-0.9,4.4-2.3,14.3-6.8,16.7C38.3,71.6,41,46.8,48.1,43"/>
</g>
</svg>
