<?xml version="1.0" encoding="utf-8"?>
<!-- Generator: Adobe Illustrator 21.0.2, SVG Export Plug-In . SVG Version: 6.00 Build 0)  -->
<svg version="1.1" id="Layer_1" xmlns="http://www.w3.org/2000/svg" xmlns:xlink="http://www.w3.org/1999/xlink" x="0px" y="0px"
	 viewBox="0 0 99.2 99.2" style="enable-background:new 0 0 99.2 99.2;" xml:space="preserve">
<style type="text/css">
	.st0{fill:#F1F0F0;}
	.st1{fill:#FFFEF1;}
</style>
<path class="st0" d="M51.3,14.3c-6.4,1.7-11.1,10.2-14,15.5c-3.9,7.2-8.1,15-10.6,22.8c-1.9,6-2.7,13,4,16.2
	c6.9,3.2,17.1,0.7,24.3-0.3c1.6,6.9,0,19.8,10.4,19.6C77.1,88.1,74,73,72.4,66c-2.5-11-4.7-21.9-6.8-33C64.1,25,63,11.3,51.3,14.3
	 M49.7,44.3c0.1-0.1,0.1-0.3,0.2-0.4c0.4,2.5,0.8,5.1,1.4,7.6c-1.8,0.2-3.6,0.5-5.4,0.7C47.1,49.6,48.5,47,49.7,44.3"/>
</svg>
