<?xml version="1.0" encoding="utf-8"?>
<!-- Generator: Adobe Illustrator 21.0.2, SVG Export Plug-In . SVG Version: 6.00 Build 0)  -->
<svg version="1.1" id="Layer_1" xmlns="http://www.w3.org/2000/svg" xmlns:xlink="http://www.w3.org/1999/xlink" x="0px" y="0px"
	 viewBox="0 0 99.2 99.2" style="enable-background:new 0 0 99.2 99.2;" xml:space="preserve">
<style type="text/css">
	.st0{fill:#F1F0F0;}
	.st1{fill:#FFFEF1;}
</style>
<path class="st0" d="M37.2,18.3c-4.5,1.6-10.6,3.9-13.1,8.3c-2.7,5,0.1,11.3,5.5,12.7c5.5,1.4,9.2-3.5,14.2-4.7
	c3.7-0.9,12-2,14.3,2.4c2.2,4.2-2.4,5.2-5.5,5.3c-5.4,0.2-10.8-1.3-13.5,5c-2.7,6.3,1.9,9.6,6.7,12.1c2,1,12.3,4.9,12.1,7.7
	c-0.3,3-7.2,4.2-9.7,3.6c-4.2-0.9-4.3-5-7.8-6.9c-4.8-2.7-10.9-0.1-12.6,5c-1.6,5,1.9,10.2,5.5,13.4C52.4,99,91.7,75.1,69.9,53.7
	c8.6-7.3,7.9-21.4,0.5-29.2C62.2,15.8,48.2,14.5,37.2,18.3"/>
</svg>
