<?xml version="1.0" encoding="utf-8"?>
<!-- Generator: Adobe Illustrator 21.0.2, SVG Export Plug-In . SVG Version: 6.00 Build 0)  -->
<svg version="1.1" id="Layer_1" xmlns="http://www.w3.org/2000/svg" xmlns:xlink="http://www.w3.org/1999/xlink" x="0px" y="0px"
	 viewBox="0 0 99.2 99.2" style="enable-background:new 0 0 99.2 99.2;" xml:space="preserve">
<style type="text/css">
	.st0{fill:#F1F0F0;}
	.st1{fill:#FFFEF1;}
</style>
<path class="st0" d="M43,12.5c-10.6,2.7-18.8,11.3-19.9,22.2c-0.5,4.9-0.1,10.9,4.9,13.4c4.1,2,9.1,0.4,11.4-3.4
	c2.1-3.6-0.2-7.8,1.8-11.3c2-3.4,7.4-4.7,10.9-4c13,2.7,3,16.6-2.1,21.8c-7,7.2-15.6,12.7-22.6,19.8c-3.4,3.4-5.1,8.2-2.2,12.5
	c3.4,5,10.7,4.3,15.9,4.6c6,0.3,12,0.3,17.9-0.1c5.2-0.3,11.9,0.3,14.9-4.9c2.1-3.6,1.3-8.2-1.8-10.9c-4.5-3.9-11.8-1.7-17.1-1.5
	c11-9.2,23-23.3,20.6-38.6C73.6,16.9,56.9,9.1,43,12.5"/>
</svg>
