<?xml version="1.0" encoding="utf-8"?>
<!-- Generator: Adobe Illustrator 21.0.2, SVG Export Plug-In . SVG Version: 6.00 Build 0)  -->
<svg version="1.1" id="Layer_1" xmlns="http://www.w3.org/2000/svg" xmlns:xlink="http://www.w3.org/1999/xlink" x="0px" y="0px"
	 viewBox="0 0 99.2 99.2" style="enable-background:new 0 0 99.2 99.2;" xml:space="preserve">
<style type="text/css">
	.st0{fill:#F1F0F0;}
	.st1{fill:#FFFEF1;}
</style>
<path class="st0" d="M37.4,17.9c-14.5,10.5-11.2,33-7.8,48c1.7,7.6,4.4,17.4,12.2,20.8c6.5,2.9,14.9,1.7,20.6-2.5
	C75.9,73.9,73,51.6,71,37.1c-1-7.2-2.2-15.7-9-19.8C56,13.7,43.2,13.7,37.4,17.9 M47,32.8c5.6-0.4,6,2.2,6.2,3.1
	c0.7,3.8,4.8,36.2-3,34.8c-3.4-0.6-4.9-14.3-5.2-17.3C44.2,47.4,42.6,37.8,47,32.8"/>
</svg>
