<?xml version="1.0" encoding="utf-8"?>
<!-- Generator: Adobe Illustrator 21.0.2, SVG Export Plug-In . SVG Version: 6.00 Build 0)  -->
<svg version="1.1" id="Layer_1" xmlns="http://www.w3.org/2000/svg" xmlns:xlink="http://www.w3.org/1999/xlink" x="0px" y="0px"
	 viewBox="0 0 99.2 99.2" style="enable-background:new 0 0 99.2 99.2;" xml:space="preserve">
<style type="text/css">
	.st0{fill:#F1F0F0;}
	.st1{fill:#FFFEF1;}
</style>
<g>
	<path class="st0" d="M26.2,22.4c-3.4,3.5-2.8,10-2.9,14.5c-0.2,6.4,0,12.8,0.1,19.2c0.1,5.7,0.2,11.3,0.3,17
		c0.1,4.5-0.9,9.2,3.2,12.4c8.4,6.7,14.2-3.6,15.4-10.7c1.1-6.4,5.3-22.6,14.8-20.6c2.6,2.4,0.9,10,0.9,13.1
		c-0.1,5.2-2.1,12.6,0.1,17.4c1.7,3.8,5.9,5.9,10,4.9c5.2-1.2,6.2-5.4,6.7-9.9C75.8,69,78.3,53,71.3,43.9
		c-7.2-9.4-21.7-9.4-30.5-2.2c0-5.3,2.2-13.8-1.1-18.4C36.4,19,29.9,18.4,26.2,22.4"/>
</g>
</svg>
