<?xml version="1.0" encoding="utf-8"?>
<!-- Generator: Adobe Illustrator 21.0.2, SVG Export Plug-In . SVG Version: 6.00 Build 0)  -->
<svg version="1.1" id="Layer_1" xmlns="http://www.w3.org/2000/svg" xmlns:xlink="http://www.w3.org/1999/xlink" x="0px" y="0px"
	 viewBox="0 0 99.2 99.2" style="enable-background:new 0 0 99.2 99.2;" xml:space="preserve">
<style type="text/css">
	.st0{fill:#F1F0F0;}
	.st1{fill:#FFFEF1;}
</style>
<g>
	<path class="st0" d="M32.3,40.3c-1.8-4.4-4.6-11.1-2.6-15.7c1.8-4,6.4-6.1,10.6-4.8c4.3,1.3,5.6,5.1,6.7,9.1c0,0,0,0,0-0.1
		c0.6,2.3,1.4,4.6,2.3,6.8C52.6,30.6,56,24,62,21.9c5.1-1.8,14-0.5,17.2,4.4c3.8,5.8-0.6,13.7-7.5,13.6c-4.6-0.1-3-1.7-6.2,2.9
		c-2.6,3.8-7.8,11.6-7.7,12.1c0.1,0.4,7.3,11.9,10.9,17.2c3,4.5,6.1,9.2,1.9,14.2c-9.2,10.8-18.7-7.5-22.7-14
		c-2.3,5.5-5.2,13.2-11.4,15.4c-5.4,1.9-14.1,1.4-16.8-4.4c-2.9-6.1,0.8-10.5,6.1-12.1c1.4-0.5,2.9,0.2,3.5-0.2
		c0.8-0.5,1.7-3.2,2.1-4.2c1.9-4.3,5.9-11.8,5.9-11.8"/>
</g>
</svg>
