<?xml version="1.0" encoding="utf-8"?>
<!-- Generator: Adobe Illustrator 21.0.2, SVG Export Plug-In . SVG Version: 6.00 Build 0)  -->
<svg version="1.1" id="Layer_1" xmlns="http://www.w3.org/2000/svg" xmlns:xlink="http://www.w3.org/1999/xlink" x="0px" y="0px"
	 viewBox="0 0 99.2 99.2" style="enable-background:new 0 0 99.2 99.2;" xml:space="preserve">
<style type="text/css">
	.st0{fill:#F1F0F0;}
	.st1{fill:#FFFEF1;}
</style>
<path class="st0" d="M35.9,13.2c-2.2,0.2-4.3,0.8-6.5,1c-0.3,0-0.6,0.1-0.9,0.1c-2.1,0.2-4.3,1.9-5.5,3.7c-1.1,1.6-1.6,3.5-1.5,5.3
	c-0.4,0.9-0.7,1.9-0.7,2.9c-0.2,2.8-0.5,5.6-0.7,8.4c-0.1,2.5,0,5.1,0.1,7.6c0.1,2.5,0.2,5,0.2,7.5c0,2.6,0,5.1,0.1,7.7
	c0.2,4.8,0.4,9.7,0.5,14.5c0,0.7,0,1.4,0,2.2c0,0.9,0.1,1.9,0.2,2.8c0.2,1.7,1.1,3,2.1,4.4c1.2,1.7,3.4,2.6,5.2,3.3
	c1.2,0.4,2.3,0.8,3.5,1.1c3.1,0.7,6.2,1.2,9.4,1.4c1.9,0.1,3.7,0,5.6-0.2c1.4-0.1,2.7-0.3,4-0.7c2.8-0.7,5.6-1.8,8.2-3.1
	c1.7-0.9,3.3-2,4.9-3.1c1.1-0.7,2.1-1.6,3-2.6c1.2-1.2,2.4-2.7,3.4-4.1c1-1.5,1.8-3.2,2.5-4.9c1-2.1,1.6-4.4,1.5-6.7
	c-0.1-1.3-0.1-2.3-0.4-3.5c-0.3-1.1-0.8-2.3-1.2-3.4c-0.3-0.7-0.8-1.4-1.2-2.1c-0.7-1.1-1.5-2.3-2.4-3.3c-0.6-0.7-1.4-1.3-2.1-1.9
	c1.6-2,2.8-4.3,3.6-6.8c0.6-2.1,0.9-4.7,0.2-6.8c-0.5-1.6-1-3.2-1.7-4.8c-1.1-2.6-2.7-5-4.7-7c-2.8-2.8-6.3-4.6-9.9-6.2
	c-3-1.3-6.2-2.3-9.4-2.8c-1.3-0.2-2.6-0.3-4-0.3C39.4,12.9,37.6,13,35.9,13.2 M43.3,30.6c2,0.5,4,1.3,5.9,2.2c1,0.5,2,1.1,2.9,1.8
	c0.2,0.2,0.4,0.5,0.6,0.7c0.3,0.5,0.5,1.1,0.8,1.6c0,0.1-0.1,0.1-0.1,0.2c-0.4,0.4-0.8,0.7-1.2,1c-1.1,0.6-2.3,1.1-3.5,1.6
	c-2.2,0.7-4.3,1.4-6.6,1.9c-1.1,0.1-2.1,0.2-3.2,0.4c-0.4,0-0.8,0.1-1.2,0.1c0-0.4,0-0.8,0-1.1c-0.1-3.5,0.2-6.9,0.4-10.3
	c0.2,0,0.5-0.1,0.7-0.1C40.3,30.4,41.8,30.4,43.3,30.6 M32.1,31.5C32.1,31.5,32.1,31.5,32.1,31.5C32.1,31.5,32.1,31.5,32.1,31.5
	 M49.5,58.8c2,0.6,4,1.2,5.9,2.1c0.3,0.2,0.6,0.4,0.9,0.6c0.1,0.1,0.2,0.3,0.4,0.4c0,0,0,0.1,0.1,0.1c-0.1,0.2-0.1,0.3-0.2,0.5
	c-0.5,0.8-1,1.6-1.6,2.3c-0.7,0.6-1.3,1.2-2.1,1.7c-1.5,0.9-3.1,1.7-4.8,2.4c-0.6,0.2-1.1,0.3-1.7,0.5c-0.6,0.1-1.2,0.2-1.8,0.3
	c-2.2,0-4.3-0.2-6.4-0.5c0-1.1,0-2.3-0.1-3.4c0-2-0.1-3.9-0.2-5.9c1-0.2,2.1-0.4,3.1-0.5c1.3-0.2,2.7-0.5,4.1-0.7
	C46.6,58.7,48.1,58.7,49.5,58.8"/>
</svg>
