<?xml version="1.0" encoding="utf-8"?>
<!-- Generator: Adobe Illustrator 21.0.2, SVG Export Plug-In . SVG Version: 6.00 Build 0)  -->
<svg version="1.1" id="Layer_1" xmlns="http://www.w3.org/2000/svg" xmlns:xlink="http://www.w3.org/1999/xlink" x="0px" y="0px"
	 viewBox="0 0 99.2 99.2" style="enable-background:new 0 0 99.2 99.2;" xml:space="preserve">
<style type="text/css">
	.st0{fill:#F1F0F0;}
	.st1{fill:#FFFEF1;}
</style>
<path class="st0" d="M21.1,14.8c-1.7,5.6-2.7,11.5-3.4,17.3c-0.6,4.8-0.2,9.7-0.6,14.5c-0.4,4.8-1,9.6-1.2,14.4
	c-0.1,2.4-0.1,4.8-0.3,7.2c-0.1,1-0.1,2-0.2,3c-0.1,1.4-0.3,2.4,0.1,3.9c1,3.8,4.4,6.6,8.4,6.6c1.5,0,3-0.3,4.3-1.1
	c0.3-0.2,0.6-0.3,0.8-0.5c0.2,0.2,0.5,0.5,0.7,0.7c3.4,3.4,8.1,5.6,12.8,6.5c2.4,0.5,4.8,0.9,7.2,0.7c3.3-0.2,6.8-1,9.7-2.8
	c1.2-0.8,2.4-1.6,3.6-2.5c1.5-1.2,2.6-2.5,3.8-4c1.8-2.3,2.6-5,3.4-7.8c0.3-1.1,0.5-2.3,0.7-3.5c0.2-1.6,0.5-3.2,0.7-4.7
	c0.2-2-0.1-4.1-0.5-6.1c-0.3-1.8-1.2-3.5-1.8-5.2c-0.7-1.7-1.9-3.3-3-4.8c-0.8-1-1.5-1.9-2.4-2.8c-1.8-1.7-3.8-3.4-5.8-4.8
	c-1-0.7-2-1.4-3-2c-2-1.2-4.2-2-6.5-2.6C44.1,33.5,39.4,33,35,34c0.1-0.7,0.2-1.4,0.2-2.2c0.2-1.6,0.5-3.1,0.8-4.7
	c0.4-2.5,1.1-5,1.9-7.5c1.4-4.6-1.4-9.5-6-10.9c-0.8-0.2-1.6-0.3-2.4-0.3C25.8,8.5,22.2,11,21.1,14.8 M41.6,51
	c1.3,0.3,2.5,0.6,3.8,1c1.4,0.8,2.6,1.7,3.9,2.6c1.2,1.1,2.4,2.2,3.5,3.4c0.3,0.5,0.6,1.1,0.9,1.6c0.2,0.5,0.3,1,0.4,1.5
	c0,0.8,0,1.5-0.1,2.3c-0.3,1.7-0.7,3.5-1.2,5.1c0,0.1-0.1,0.2-0.2,0.2c-0.3,0.3-0.7,0.7-1,1c-0.4,0.3-0.8,0.5-1.2,0.7
	c-0.3,0.1-0.6,0.2-0.9,0.2c-0.7,0-1.3,0-1.9-0.1c-1.2-0.3-2.4-0.6-3.6-1c-0.5-0.3-1-0.6-1.5-0.9c-0.5-0.4-0.9-0.9-1.3-1.4
	c-0.2-0.3-0.4-0.7-0.7-1c-0.7-1.1-1.2-2.2-1.7-3.4c-0.4-1-0.9-1.9-1.3-2.8c0-0.1-0.1-0.2-0.1-0.3c-0.1-0.2-0.1-0.3-0.2-0.5
	c0,0.1,0.1,0.2,0.1,0.3c-0.4-0.7-0.8-1.4-1.3-2c0.4-1.7,0.9-3.5,1.6-5.1c0.2-0.4,0.5-0.8,0.7-1.2c0,0,0,0,0,0c0.1,0,0.1-0.1,0.1-0.1
	c0.4-0.1,0.9-0.2,1.3-0.3C40.2,50.9,40.9,50.9,41.6,51"/>
</svg>
