<?xml version="1.0" encoding="utf-8"?>
<!-- Generator: Adobe Illustrator 21.0.2, SVG Export Plug-In . SVG Version: 6.00 Build 0)  -->
<svg version="1.1" id="Layer_1" xmlns="http://www.w3.org/2000/svg" xmlns:xlink="http://www.w3.org/1999/xlink" x="0px" y="0px"
	 viewBox="0 0 99.2 99.2" style="enable-background:new 0 0 99.2 99.2;" xml:space="preserve">
<style type="text/css">
	.st0{fill:#F1F0F0;}
	.st1{fill:#FFFEF1;}
</style>
<g>
	<path class="st0" d="M69.6,45c-0.9-8.8-9.9-7.7-16.3-7.2c4.9-5.7,2-15.5-6.5-15.1C38.1,23.3,35.2,35,33.3,41.6
		c-4.7,16.5-8.7,38.1,11.6,45.8c6.6,2.5,19,2.3,20.5-6.7c0.7-3.9-1.5-7.8-5.1-9.4c-3-1.4-5.4,0.6-8.1,0.1c-2.7-0.5-4.7-2.5-5.5-5.1
		c-0.6-2-0.4-8.8,1-10.1c2.5-2.2,11-0.9,14.1-1.7C66.5,53.5,70.2,50.2,69.6,45z"/>
</g>
</svg>
