<?xml version="1.0" encoding="utf-8"?>
<!-- Generator: Adobe Illustrator 21.0.2, SVG Export Plug-In . SVG Version: 6.00 Build 0)  -->
<svg version="1.1" id="Layer_1" xmlns="http://www.w3.org/2000/svg" xmlns:xlink="http://www.w3.org/1999/xlink" x="0px" y="0px"
	 viewBox="0 0 99.2 99.2" style="enable-background:new 0 0 99.2 99.2;" xml:space="preserve">
<style type="text/css">
	.st0{fill:#F1F0F0;}
	.st1{fill:#FFFEF1;}
</style>
<path class="st0" d="M57.7,17.4C31,22.3,6.4,71.4,38.2,85.8c13.8,6.2,30.9,0.5,36.1-14.1c5.3-15.2-3-31.6-19.3-34.1
	c5.4-3.9,15.2-3.9,13.8-13.1C67.9,19.3,62.7,15.9,57.7,17.4 M47.1,54.8c5.9-0.5,11.5,1,11.2,7.8c-0.2,5.6-4.2,8.9-9.8,8.1
	c-4.4-0.6-7.3-3-7.7-7.4C40.3,57.9,42.1,56,47.1,54.8"/>
</svg>
