<?xml version="1.0" encoding="utf-8"?>
<!-- Generator: Adobe Illustrator 21.0.2, SVG Export Plug-In . SVG Version: 6.00 Build 0)  -->
<svg version="1.1" id="Layer_1" xmlns="http://www.w3.org/2000/svg" xmlns:xlink="http://www.w3.org/1999/xlink" x="0px" y="0px"
	 viewBox="0 0 99.2 99.2" style="enable-background:new 0 0 99.2 99.2;" xml:space="preserve">
<style type="text/css">
	.st0{fill:#F1F0F0;}
	.st1{fill:#FFFEF1;}
</style>
<path class="st1" d="M31.4,75.5c-0.1,2.6-0.4,5.2-0.8,7.7c-0.5,2.7-0.2,2.1-1.4,4.6c-0.7,1.6-1.6,3.2-2.4,4.7
	c-1.2,2.2-3.2,4.2-5.4,5.3c-2.9,1.4-6.2,1.5-9.2,0.6c-1.1-0.3-2.2-0.8-3.1-1.5c-1.4-0.9-3.3-2.6-4-4.2c-0.4-0.9-0.8-1.8-1.1-2.7
	c-0.1-1-0.3-2.1-0.4-3.2c0.1-1.4,0.3-2.9,0.7-4.3c0.5-1.9,1.5-3.7,2.3-5.4c0.3-0.7,0.7-1.4,1.1-2.1c1.5-2.9,1.5-2.9,3.5-5.5
	c0.7-0.8,5.8-7.6,13.3-4.8S31.4,75.5,31.4,75.5z"/>
</svg>
