<?xml version="1.0" encoding="utf-8"?>
<!-- Generator: Adobe Illustrator 21.0.2, SVG Export Plug-In . SVG Version: 6.00 Build 0)  -->
<svg version="1.1" id="Layer_1" xmlns="http://www.w3.org/2000/svg" xmlns:xlink="http://www.w3.org/1999/xlink" x="0px" y="0px"
	 viewBox="0 0 99.2 99.2" style="enable-background:new 0 0 99.2 99.2;" xml:space="preserve">
<style type="text/css">
	.st0{fill:#F1F0F0;}
	.st1{fill:#FFFEF1;}
</style>
<g>
	<path class="st0" d="M43.4,20.6C35,22.9,29.6,31.6,25.9,38.9c-4,8-4.8,16.7-4.2,25.5C23,83.7,42.1,92.3,59.6,89.2
		c9.1-1.6,13.4-8.9,16.3-16.9c3.2-8.8,2.6-16.1-7.3-19.2c-6.4-2-17.6-6.1-21,2.4c-1.2,3.1-0.6,6.6,1.6,9c1.2,1.3,2.5,2.1,4.2,2.7
		c1.5,0.5,5.4,0.3,6.5,1.3c-2.1,4.7-5.5,4.3-10.5,3.6c-4.4-0.6-9.8-2.1-11.2-7c-1.3-4.6-0.4-11.8,1.2-16.2
		c1.5-4.1,4.9-11.1,9.5-12.3c5.5-1.4,10.8,2.5,16,1.7c4.8-0.7,7.8-5.9,6.8-10.4C69.2,17.7,51.1,18.5,43.4,20.6"/>
</g>
</svg>
