<?xml version="1.0" encoding="utf-8"?>
<!-- Generator: Adobe Illustrator 21.0.2, SVG Export Plug-In . SVG Version: 6.00 Build 0)  -->
<svg version="1.1" id="Layer_1" xmlns="http://www.w3.org/2000/svg" xmlns:xlink="http://www.w3.org/1999/xlink" x="0px" y="0px"
	 viewBox="0 0 99.2 99.2" style="enable-background:new 0 0 99.2 99.2;" xml:space="preserve">
<style type="text/css">
	.st0{fill:#F1F0F0;}
	.st1{fill:#FFFEF1;}
</style>
<g>
	<path class="st0" d="M51.2,18.5c-23.8,1.9-28.6,27.1-27.9,46.8c0.3,7.7-2,25.5,10.3,24.7c12.1-0.8,7.3-18.1,7.2-25.5
		C53.7,69,73.3,61.9,75.7,47C78,32.4,66.2,17.4,51.2,18.5 M53.8,35.9c2.6,0.4,4.8,4.6,4.5,7c-0.4,3.6-4.6,5.2-8,5.4
		c-1.9,0.1-4.3,0.1-5.9-1.1c-2.8-2.1-1.7-0.9-1-3.8C44.5,38.2,48.9,36.1,53.8,35.9"/>
</g>
</svg>
