<?xml version="1.0" encoding="utf-8"?>
<!-- Generator: Adobe Illustrator 21.0.2, SVG Export Plug-In . SVG Version: 6.00 Build 0)  -->
<svg version="1.1" id="Layer_1" xmlns="http://www.w3.org/2000/svg" xmlns:xlink="http://www.w3.org/1999/xlink" x="0px" y="0px"
	 viewBox="0 0 99.2 99.2" style="enable-background:new 0 0 99.2 99.2;" xml:space="preserve">
<style type="text/css">
	.st0{fill:#F1F0F0;}
	.st1{fill:#FFFEF1;}
</style>
<g>
	<path class="st0" d="M34.6,13.6c-9.5,3.5-8.8,17-10.4,25.4c-2.4,13.2-3.7,26.2-4,39.7c-0.1,5,1,9.8,6.7,11.1
		c4.8,1.1,9.2-2,10.4-6.6c1.5-5.8,0.5-12.8,0.9-18.7c0.4-6.4,1.3-12.8,2.5-19.1c1.6,5.3,2.2,13.5,8.6,15.3
		c6.7,1.9,10.2-3.4,11.6-8.9c0.6,7.4,0.6,14.7,0.5,22.1c-0.1,5.3-0.7,11.2,5.1,13.7C80.8,94.2,79,71,78.9,63.9
		c-0.1-12.8-1.2-26.1-5.5-38.2c-1.8-5.1-4.7-11.1-10.9-11.3c-6.1-0.2-9.1,5.4-11.3,10.2C48.1,19,42.1,10.8,34.6,13.6"/>
</g>
</svg>
