<?xml version="1.0" encoding="utf-8"?>
<!-- Generator: Adobe Illustrator 21.0.2, SVG Export Plug-In . SVG Version: 6.00 Build 0)  -->
<svg version="1.1" id="Layer_1" xmlns="http://www.w3.org/2000/svg" xmlns:xlink="http://www.w3.org/1999/xlink" x="0px" y="0px"
	 viewBox="0 0 99.2 99.2" style="enable-background:new 0 0 99.2 99.2;" xml:space="preserve">
<style type="text/css">
	.st0{fill:#F1F0F0;}
	.st1{fill:#FFFEF1;}
</style>
<g>
	<path class="st0" d="M50.2,19.5c-10.9,1.5-23.7,7.4-26,19.3c-2.6,13.4,14.6,19.2,25.4,18.1c-3.8,9.1-15,28.1,0.9,31.6
		c7.3,1.6,17-2.4,21.8-8c5.1-6,0.8-15.6-7.5-14.7c2.6-5.9,4.2-12.1,6.4-18.1c2-5.6,5-10.3,3.8-16.3C72.8,20.3,60,18.2,50.2,19.5
		 M55.3,36.6c-3,2.2-7,3.4-10.7,2.6C47.6,37.4,52,36.8,55.3,36.6"/>
</g>
</svg>
