<?xml version="1.0" encoding="utf-8"?>
<!-- Generator: Adobe Illustrator 21.0.2, SVG Export Plug-In . SVG Version: 6.00 Build 0)  -->
<svg version="1.1" id="Layer_1" xmlns="http://www.w3.org/2000/svg" xmlns:xlink="http://www.w3.org/1999/xlink" x="0px" y="0px"
	 viewBox="0 0 99.2 99.2" style="enable-background:new 0 0 99.2 99.2;" xml:space="preserve">
<style type="text/css">
	.st0{fill:#F1F0F0;}
	.st1{fill:#FFFEF1;}
</style>
<g>
	<path class="st0" d="M39.4,13.8C29,14.5,28.8,25.8,27.6,33.9c-1.5,10-3.1,20-4.3,30.1c-0.9,8.2-2.1,17.5,5.9,22.7
		c6.7,4.3,15,3.6,22.2,1.5c18-5.4,27.8-28.1,24.3-46C72.7,26.4,55.5,12.7,39.4,13.8 M41.1,63c1.3-10.2,2.8-20.5,4.6-30.6
		C56,36.2,60,44.8,57.8,55.2c-1.8,8.7-7,18.9-17.7,17.1C40.3,69.1,40.7,66.1,41.1,63"/>
</g>
</svg>
