<?xml version="1.0" encoding="utf-8"?>
<!-- Generator: Adobe Illustrator 21.0.2, SVG Export Plug-In . SVG Version: 6.00 Build 0)  -->
<svg version="1.1" id="Layer_1" xmlns="http://www.w3.org/2000/svg" xmlns:xlink="http://www.w3.org/1999/xlink" x="0px" y="0px"
	 viewBox="0 0 99.2 99.2" style="enable-background:new 0 0 99.2 99.2;" xml:space="preserve">
<style type="text/css">
	.st0{fill:#F1F0F0;}
	.st1{fill:#FFFEF1;}
</style>
<path class="st0" d="M43.6,13.1C30.4,15.6,18,25.7,22.7,40.7c3.7,11.8,18.3,17.9,29.6,14c-1.5,7.9-9,27.5,0.3,32.5
	C66.8,94.7,67.6,68,69,60.5c1.3-6.9,2.8-13.7,4.7-20.4c1.6-5.7,5.9-13.6,1.3-18.8C67.5,12.5,54.6,11,43.6,13.1 M46,30.3
	c3.4-0.5,7.3-0.8,10.7-0.2c-3,3.6-11.3,12.1-16.2,6.5C37.1,32.7,42.6,31.2,46,30.3"/>
</svg>
