<?xml version="1.0" encoding="utf-8"?>
<!-- Generator: Adobe Illustrator 21.0.2, SVG Export Plug-In . SVG Version: 6.00 Build 0)  -->
<svg version="1.1" id="Layer_1" xmlns="http://www.w3.org/2000/svg" xmlns:xlink="http://www.w3.org/1999/xlink" x="0px" y="0px"
	 viewBox="0 0 99.2 99.2" style="enable-background:new 0 0 99.2 99.2;" xml:space="preserve">
<style type="text/css">
	.st0{fill:#F1F0F0;}
	.st1{fill:#FFFEF1;}
</style>
<path class="st0" d="M73.3,73.2c-1.9-5.5-7.5-6.5-12.5-5c-0.5-10.7,0.3-21.2,0.3-32c0-7.3,2.4-21.6-6.8-24.7
	c-5-1.7-7.6,1.3-11.5,3.7c-3.5,2.1-8,3.2-11,6.1c-3.7,3.5-4,9.3-0.2,12.9c3.8,3.5,7.9,2.5,12,0.3c0.1,11.3-3.2,25.3,0.1,36.3
	c-5.5,0.1-8.5-6.1-14.5-1.8c-8.1,5.8-1.5,14.7,5.2,17.4C42.7,89.9,78.9,89.4,73.3,73.2z"/>
</svg>
