<?xml version="1.0" encoding="utf-8"?>
<!-- Generator: Adobe Illustrator 21.0.2, SVG Export Plug-In . SVG Version: 6.00 Build 0)  -->
<svg version="1.1" id="Layer_1" xmlns="http://www.w3.org/2000/svg" xmlns:xlink="http://www.w3.org/1999/xlink" x="0px" y="0px"
	 viewBox="0 0 99.2 99.2" style="enable-background:new 0 0 99.2 99.2;" xml:space="preserve">
<style type="text/css">
	.st0{fill:#F1F0F0;}
	.st1{fill:#FFFEF1;}
</style>
<g>
	<path class="st0" d="M31.2,17.7c-7.6,5.4-4.3,20.5,0.4,26.8c4.9,6.6,15,10.9,23.1,8.6c0,2.2,0,5.4-0.1,6.5s-0.8,14.2-7.4,12.7
		c-3.8-0.9-2.3-5.7-3.8-8.4c-2.5-4.6-8.5-5.9-12.7-3c-4.4,3.1-4.3,9.3-2.9,14C31.4,87,43.9,92.7,55.5,87.9
		C67.1,83.1,71.9,71,71.8,60.8s-0.4-21.3,0.5-31.9c0.4-4.5,0.7-8.7-3.6-11.4c-3.8-2.4-8.8-1.4-11.5,2.1c-1.5,2-4.8,24.9-11.9,14
		c-2.7-4.1,1.3-9.5-1.9-13.9C40.6,15.8,35.1,14.9,31.2,17.7"/>
</g>
</svg>
