<?xml version="1.0" encoding="utf-8"?>
<!-- Generator: Adobe Illustrator 21.0.2, SVG Export Plug-In . SVG Version: 6.00 Build 0)  -->
<svg version="1.1" id="Layer_1" xmlns="http://www.w3.org/2000/svg" xmlns:xlink="http://www.w3.org/1999/xlink" x="0px" y="0px"
	 viewBox="0 0 99.2 99.2" style="enable-background:new 0 0 99.2 99.2;" xml:space="preserve">
<style type="text/css">
	.st0{fill:#F1F0F0;}
	.st1{fill:#FFFEF1;}
</style>
<g>
	<path class="st0" d="M68,27.4c-11.2-13-28.8-6.8-35.6,6.9c-6.4,13-2.4,35.4-1.7,41.3c0.8,6,0.5,13.1,8.2,14.1
		c5.4,0.7,10.1-3.7,9.8-9.1c0,0-0.9-8.3-1.5-12.5c6.6-0.7,17.4,0.3,17.3-9.3c0-10.2-11.4-8.8-18.2-8.1c0.1-5,1.2-9.5,5-12.9
		c5.5,0.1,7.7,7.1,14.5,3.5C71.3,38.4,71.7,31.8,68,27.4z"/>
</g>
</svg>
