<?xml version="1.0" encoding="utf-8"?>
<!-- Generator: Adobe Illustrator 21.0.2, SVG Export Plug-In . SVG Version: 6.00 Build 0)  -->
<svg version="1.1" id="Layer_1" xmlns="http://www.w3.org/2000/svg" xmlns:xlink="http://www.w3.org/1999/xlink" x="0px" y="0px"
	 viewBox="0 0 99.2 99.2" style="enable-background:new 0 0 99.2 99.2;" xml:space="preserve">
<style type="text/css">
	.st0{fill:#F1F0F0;}
	.st1{fill:#FFFEF1;}
</style>
<g>
	<path class="st0" d="M32.2,17.3C24,18.8,25,27.7,25.1,34c0.1,9.6,1.1,19.9,2.9,29.3c1.5,7.8,4.5,20.1,12.1,24.3
		c8.9,5,15.8-5.8,20.1-11.9c5.7-8.2,9.2-17.8,11.6-27.4c1.7-6.6,5.3-19-2.6-23c-8.8-4.6-12.4,4.5-13.1,11.1
		c-1,9.9-4.3,20.5-9.9,28.7c-2.6-9.7-3.6-20.5-3.8-30.5C42.4,27.7,43.2,15.2,32.2,17.3"/>
</g>
</svg>
