<?xml version="1.0" encoding="utf-8"?>
<!-- Generator: Adobe Illustrator 21.0.2, SVG Export Plug-In . SVG Version: 6.00 Build 0)  -->
<svg version="1.1" id="Layer_1" xmlns="http://www.w3.org/2000/svg" xmlns:xlink="http://www.w3.org/1999/xlink" x="0px" y="0px"
	 viewBox="0 0 99.2 99.2" style="enable-background:new 0 0 99.2 99.2;" xml:space="preserve">
<style type="text/css">
	.st0{fill:#F1F0F0;}
	.st1{fill:#FFFEF1;}
</style>
<g>
	<path class="st0" d="M65,18.5c-4.4,1-6.5,4.8-6.7,9c-0.4,7.1,0.8,14.1,0.1,21.3c-14.1-5.5-32.1,2-35.5,17.5
		c-3.3,15.2,14.6,26.5,27.9,23c15.1-4,22-19.9,24.3-34C76.4,47,81.1,14.7,65,18.5 M49.2,64.1c1.4,0.3,3.2,0.8,4.5,1.5
		c-2.6,4.3-9.8,10.7-13.5,3.8C41.3,66,45.8,63.9,49.2,64.1"/>
</g>
</svg>
