<?xml version="1.0" encoding="utf-8"?>
<!-- Generator: Adobe Illustrator 21.0.2, SVG Export Plug-In . SVG Version: 6.00 Build 0)  -->
<svg version="1.1" id="Layer_1" xmlns="http://www.w3.org/2000/svg" xmlns:xlink="http://www.w3.org/1999/xlink" x="0px" y="0px"
	 viewBox="0 0 99.2 99.2" style="enable-background:new 0 0 99.2 99.2;" xml:space="preserve">
<style type="text/css">
	.st0{fill:#F1F0F0;}
	.st1{fill:#FFFEF1;}
</style>
<g>
	<path class="st0" d="M56.3,88.3c12.5-2.8,23.2-15,19.8-28.6c-3-12.1-16.3-13.5-26.2-16.7c-3.8-1.2-11-4.2-9.8-9.3
		c1-4.3,9.3-5.1,12.3-2.6c1.7,1.4,1.6,4.8,3,6.6c1.4,1.8,3.5,3,5.7,3.3c5.4,0.8,10.1-3.8,9.9-9.2C70.2,6.7,29,6.7,23.2,29.2
		C19.7,42.8,29.8,54,41.8,58.7c3.2,1.3,15.8,2.4,17.3,5.7c0.7,1.6-2.3,5.1-3.2,5.8c-1.8,1.2-5.2,1.7-7.4,1.4
		c-7.7-1.1-7.5-9-13.8-11.1c-5.8-2-11.8,2.8-11.5,8.8C23.8,83.7,44.5,91,56.3,88.3"/>
</g>
</svg>
