<?xml version="1.0" encoding="utf-8"?>
<!-- Generator: Adobe Illustrator 21.0.2, SVG Export Plug-In . SVG Version: 6.00 Build 0)  -->
<svg version="1.1" id="Layer_1" xmlns="http://www.w3.org/2000/svg" xmlns:xlink="http://www.w3.org/1999/xlink" x="0px" y="0px"
	 viewBox="0 0 99.2 99.2" style="enable-background:new 0 0 99.2 99.2;" xml:space="preserve">
<style type="text/css">
	.st0{fill:#F1F0F0;}
	.st1{fill:#FFFEF1;}
</style>
<g>
	<path class="st0" d="M31.4,11.5c-8.1,1.2-7.5,9.3-6.7,15.3c1.2,8.9,2.3,17.8,2.1,26.8c-0.2,8.5-1.6,16.8-2,25.2
		c-0.3,5.7,2.4,11,8.7,11.3c3.2,0.1,6.4-1.5,9.5-2.1c3.8-0.7,7.6-0.9,11.4-0.7c6.2,0.3,14.5,3.4,18.9-2.6c3.8-5.2,0.6-11.8-5.2-13.5
		c-7.4-2.3-17.3-1.8-24.9-0.9c1.1-11.5,1.3-23.1,0.1-34.7C42.6,28,43.4,9.7,31.4,11.5"/>
</g>
</svg>
