<?xml version="1.0" encoding="utf-8"?>
<!-- Generator: Adobe Illustrator 21.0.2, SVG Export Plug-In . SVG Version: 6.00 Build 0)  -->
<svg version="1.1" id="Layer_1" xmlns="http://www.w3.org/2000/svg" xmlns:xlink="http://www.w3.org/1999/xlink" x="0px" y="0px"
	 viewBox="0 0 99.2 99.2" style="enable-background:new 0 0 99.2 99.2;" xml:space="preserve">
<style type="text/css">
	.st0{fill:#F1F0F0;}
	.st1{fill:#FFFEF1;}
</style>
<g>
	<path class="st0" d="M71.8,37.7c-6.5-10.6-17.8-9.2-28.3-6.1c0.6-5.1,1-12.1-3.8-15.4c-3.9-2.7-9.4-1.6-12.1,2.2
		c-2.7,3.8-1.5,10.6-1.8,15.1c-0.5,6.6-0.5,13.1-0.6,19.7c-0.1,7.1-0.2,14.1-0.3,21.2c0,4.1-0.7,8.4,2.5,11.6
		c3.4,3.4,8.9,3.5,12.3,0.1c3.8-3.7,2.7-9.8,2.8-14.6c4.8,4.1,7.4,9,10.9,14c2.7,3.9,7.5,5.8,11.9,3.3c10.5-6-0.3-18.6-5-24.2
		C70.9,60.5,78.8,49.1,71.8,37.7z M56.5,47.3c-3,1.8-7.2,2.7-10.7,2.9c0.3-0.4,0.4-1.5,0.7-1.9c3-1,6.6-2.2,9.8-2.2
		C56.3,46.2,56.5,47.1,56.5,47.3z"/>
</g>
</svg>
