<?xml version="1.0" encoding="utf-8"?>
<!-- Generator: Adobe Illustrator 21.0.2, SVG Export Plug-In . SVG Version: 6.00 Build 0)  -->
<svg version="1.1" id="Layer_1" xmlns="http://www.w3.org/2000/svg" xmlns:xlink="http://www.w3.org/1999/xlink" x="0px" y="0px"
	 viewBox="0 0 96.5 99.2" style="enable-background:new 0 0 96.5 99.2;" xml:space="preserve">
<style type="text/css">
	.st0{fill:#F1F0F0;}
	.st1{fill:#FFFEF1;}
</style>
<g>
	<path class="st0" d="M27.5,16.7c-3.1,19,6.8,43,30,36.6c-1.1,7.9-2.5,24.7-15.1,17.4c-3.7-2.1-2.5-6.6-5.4-9.5
		c-3.2-3.1-8.3-3.4-11.7-0.5c-7.6,6.4-0.7,18,5.2,22.9c7.4,6,20.1,7.9,28.8,3.9c8.5-4,12.7-13.9,14.2-22.5
		c1.8-10.8,2.9-21.8,3.4-32.8c0.3-7.2,2.3-21.3-9.4-19.6C57.4,14,60.9,26.6,57.1,33c-1.7,3-6.5,5.4-9.8,2.9c-4-3-2.5-12.3-2.5-16.4
		C44.8,8.9,29.5,5.1,27.5,16.7"/>
</g>
</svg>
