<?xml version="1.0" encoding="utf-8"?>
<!-- Generator: Adobe Illustrator 21.0.2, SVG Export Plug-In . SVG Version: 6.00 Build 0)  -->
<svg version="1.1" id="Layer_1" xmlns="http://www.w3.org/2000/svg" xmlns:xlink="http://www.w3.org/1999/xlink" x="0px" y="0px"
	 viewBox="0 0 99.2 99.2" style="enable-background:new 0 0 99.2 99.2;" xml:space="preserve">
<style type="text/css">
	.st0{fill:#F1F0F0;}
	.st1{fill:#FFFEF1;}
</style>
<g>
	<path class="st0" d="M46.4,10.4c-13,0.3-21.2,13.6-24.1,24.6c0.1-0.3,0.1-0.5,0.2-0.8c-4.1,15.3-6.1,39,10.8,47.6
		c3.7,1.9,8,3.1,12.2,3c4.5-0.1,7.9-2.5,12.1-3.1c2.4-0.4,2-0.5,4.3,1.7c1.1,1.1,2.1,2.5,3.3,3.4c2.7,2.1,6.4,2.8,9.6,1.3
		c3.1-1.5,5.1-5,4.9-8.4c-0.3-4.4-3.8-6.1-6.1-9.2C71,67,71.7,70.7,72.1,66c0.2-2.2,1.2-4.9,1.7-7.1c1-4.4,1.8-8.8,2.1-13.2
		C76.9,27.2,66.6,9.9,46.4,10.4 M47.8,27.8c10.5,0.9,11.3,11.1,10.3,19.7c-0.8,7.4-2.4,18.6-11.7,19.7c-10.7,1.3-9.9-13.3-8.8-20.4
		C38.5,40.9,40.1,28.8,47.8,27.8 M37.5,58.9l0.1,0.3L37.5,58.9z"/>
</g>
</svg>
