<?xml version="1.0" encoding="utf-8"?>
<!-- Generator: Adobe Illustrator 21.0.2, SVG Export Plug-In . SVG Version: 6.00 Build 0)  -->
<svg version="1.1" id="Layer_1" xmlns="http://www.w3.org/2000/svg" xmlns:xlink="http://www.w3.org/1999/xlink" x="0px" y="0px"
	 viewBox="0 0 99.2 99.2" style="enable-background:new 0 0 99.2 99.2;" xml:space="preserve">
<style type="text/css">
	.st0{fill:#F1F0F0;}
	.st1{fill:#FFFEF1;}
</style>
<g>
	<path class="st0" d="M28.6,12.8c-5.3,2.5-5.1,7.4-3.9,12.1c1.6,6.7,3.1,13.4,4.8,20.1c1.7,7.2,3.3,14.5,4.4,21.8
		c0.9,5.5-0.1,13.6,3.3,18.3c3.4,4.7,10.4,5,14.1,0.4c4.2-5.1,4.2-14,6-20.1c1.9-6.5,4.5-12.3,7.2-18.5c2.1-5,3.5-9.9,8.5-16.4
		c3.5-3.1,4-12.9-4.1-14.3C58,14.5,49.5,38.6,47.1,44.1C45.2,36.2,43,5.9,28.6,12.8"/>
</g>
</svg>
